<?xml version="1.0" encoding="UTF-8" standalone="no"?>
<svg
   xmlns:dc="http://purl.org/dc/elements/1.1/"
   xmlns:cc="http://creativecommons.org/ns#"
   xmlns:rdf="http://www.w3.org/1999/02/22-rdf-syntax-ns#"
   xmlns:svg="http://www.w3.org/2000/svg"
   xmlns="http://www.w3.org/2000/svg"
   xmlns:xlink="http://www.w3.org/1999/xlink"
   xmlns:sodipodi="http://sodipodi.sourceforge.net/DTD/sodipodi-0.dtd"
   xmlns:inkscape="http://www.inkscape.org/namespaces/inkscape"
   inkscape:version="1.0 (4035a4fb49, 2020-05-01)"
   id="svg8"
   version="1.1"
   viewBox="0 0 256 256"
   height="256"
   width="256"
   sodipodi:docname="MadHouse.svg">
  <defs
     id="defs2">
    <inkscape:path-effect
       effect="offset"
       id="path-effect1242"
       is_visible="true"
       lpeversion="1"
       linejoin_type="round"
       unit="mm"
       offset="7.4319"
       miter_limit="4"
       attempt_force_join="true"
       update_on_knot_move="true" />
    <inkscape:path-effect
       effect="offset"
       id="path-effect1240"
       is_visible="true"
       lpeversion="1"
       linejoin_type="round"
       unit="px"
       offset="21.4535"
       miter_limit="4"
       attempt_force_join="true"
       update_on_knot_move="true" />
    <linearGradient
       inkscape:collect="always"
       id="linearGradient899">
      <stop
         style="stop-color:#180000;stop-opacity:1"
         offset="0"
         id="stop895" />
      <stop
         style="stop-color:#a00000;stop-opacity:1"
         offset="1"
         id="stop897" />
    </linearGradient>
    <linearGradient
       inkscape:collect="always"
       xlink:href="#linearGradient899"
       id="linearGradient901"
       x1="193.39285"
       y1="256.42856"
       x2="136.60715"
       y2="34.642857"
       gradientUnits="userSpaceOnUse"
       gradientTransform="translate(2.5,-7)" />
  </defs>
  <sodipodi:namedview
     inkscape:pagecheckerboard="true"
     units="px"
     showgrid="false"
     inkscape:document-rotation="0"
     inkscape:current-layer="layer9"
     inkscape:document-units="px"
     inkscape:cy="183.73014"
     inkscape:cx="104.79625"
     inkscape:zoom="2"
     inkscape:pageshadow="2"
     inkscape:pageopacity="0.0"
     borderopacity="1.0"
     bordercolor="#666666"
     pagecolor="#ffffff"
     id="base"
     inkscape:window-width="1734"
     inkscape:window-height="1080"
     inkscape:window-x="1945"
     inkscape:window-y="1080"
     inkscape:window-maximized="0" />
  <metadata
     id="metadata5">
    <rdf:RDF>
      <cc:Work
         rdf:about="">
        <dc:format>image/svg+xml</dc:format>
        <dc:type
           rdf:resource="http://purl.org/dc/dcmitype/StillImage" />
        <dc:title />
      </cc:Work>
    </rdf:RDF>
  </metadata>
  <g
     inkscape:groupmode="layer"
     id="layer3"
     inkscape:label="House"
     style="display:inline">
    <path
       style="fill:url(#linearGradient901);fill-opacity:1;stroke:none;stroke-width:1px;stroke-linecap:butt;stroke-linejoin:miter;stroke-opacity:1"
       d="M 61.607143,249.25 29.464286,110.5 139.10714,27.642857 l 90.53572,78.750003 -33.75,143.03571 z"
       id="path51"
       inkscape:label="path51" />
  </g>
  <g
     inkscape:groupmode="layer"
     id="layer9"
     inkscape:label="Bricks"
     style="opacity:0.164516">
    <rect
       y="99.3125"
       x="207.875"
       height="0.625"
       width="2.25"
       id="rect971-87"
       style="opacity:0.999;fill:#171717;fill-opacity:1;stroke:#e10609;stroke-width:1.8;stroke-linecap:butt;stroke-linejoin:miter;stroke-miterlimit:4;stroke-dasharray:none;stroke-opacity:1;paint-order:fill markers stroke" />
    <rect
       y="104.5625"
       x="208"
       height="0.625"
       width="2.25"
       id="rect971-37"
       style="opacity:0.999;fill:#171717;fill-opacity:1;stroke:#e10609;stroke-width:1.8;stroke-linecap:butt;stroke-linejoin:miter;stroke-miterlimit:4;stroke-dasharray:none;stroke-opacity:1;paint-order:fill markers stroke" />
    <rect
       y="104.6875"
       x="201.5"
       height="0.625"
       width="2.25"
       id="rect971-60"
       style="opacity:0.999;fill:#171717;fill-opacity:1;stroke:#e10609;stroke-width:1.8;stroke-linecap:butt;stroke-linejoin:miter;stroke-miterlimit:4;stroke-dasharray:none;stroke-opacity:1;paint-order:fill markers stroke" />
    <rect
       y="93.5625"
       x="197"
       height="0.625"
       width="2.25"
       id="rect971-11"
       style="opacity:0.999;fill:#171717;fill-opacity:1;stroke:#e10609;stroke-width:1.8;stroke-linecap:butt;stroke-linejoin:miter;stroke-miterlimit:4;stroke-dasharray:none;stroke-opacity:1;paint-order:fill markers stroke" />
    <rect
       y="99.5625"
       x="201.5"
       height="0.625"
       width="2.25"
       id="rect971-20"
       style="opacity:0.999;fill:#171717;fill-opacity:1;stroke:#e10609;stroke-width:1.8;stroke-linecap:butt;stroke-linejoin:miter;stroke-miterlimit:4;stroke-dasharray:none;stroke-opacity:1;paint-order:fill markers stroke" />
    <rect
       y="75.1875"
       x="182.5"
       height="0.625"
       width="2.25"
       id="rect971-56"
       style="opacity:0.999;fill:#171717;fill-opacity:1;stroke:#e10609;stroke-width:1.8;stroke-linecap:butt;stroke-linejoin:miter;stroke-miterlimit:4;stroke-dasharray:none;stroke-opacity:1;paint-order:fill markers stroke" />
    <rect
       y="80.4375"
       x="173.375"
       height="0.625"
       width="2.25"
       id="rect971-2894"
       style="opacity:0.999;fill:#171717;fill-opacity:1;stroke:#e10609;stroke-width:1.8;stroke-linecap:butt;stroke-linejoin:miter;stroke-miterlimit:4;stroke-dasharray:none;stroke-opacity:1;paint-order:fill markers stroke" />
    <rect
       y="80.1875"
       x="182.625"
       height="0.625"
       width="2.25"
       id="rect971-289"
       style="opacity:0.999;fill:#171717;fill-opacity:1;stroke:#e10609;stroke-width:1.8;stroke-linecap:butt;stroke-linejoin:miter;stroke-miterlimit:4;stroke-dasharray:none;stroke-opacity:1;paint-order:fill markers stroke" />
    <rect
       y="75.0625"
       x="173.5"
       height="0.625"
       width="2.25"
       id="rect971-61"
       style="opacity:0.999;fill:#171717;fill-opacity:1;stroke:#e10609;stroke-width:1.8;stroke-linecap:butt;stroke-linejoin:miter;stroke-miterlimit:4;stroke-dasharray:none;stroke-opacity:1;paint-order:fill markers stroke" />
    <rect
       y="58.8125"
       x="159.375"
       height="0.625"
       width="2.25"
       id="rect971-24"
       style="opacity:0.999;fill:#171717;fill-opacity:1;stroke:#e10609;stroke-width:1.8;stroke-linecap:butt;stroke-linejoin:miter;stroke-miterlimit:4;stroke-dasharray:none;stroke-opacity:1;paint-order:fill markers stroke" />
    <rect
       y="51.3125"
       x="157.75"
       height="0.625"
       width="2.25"
       id="rect971-92"
       style="opacity:0.999;fill:#171717;fill-opacity:1;stroke:#e10609;stroke-width:1.8;stroke-linecap:butt;stroke-linejoin:miter;stroke-miterlimit:4;stroke-dasharray:none;stroke-opacity:1;paint-order:fill markers stroke" />
    <rect
       y="49.9375"
       x="148"
       height="0.625"
       width="2.25"
       id="rect971-19"
       style="opacity:0.999;fill:#171717;fill-opacity:1;stroke:#e10609;stroke-width:1.8;stroke-linecap:butt;stroke-linejoin:miter;stroke-miterlimit:4;stroke-dasharray:none;stroke-opacity:1;paint-order:fill markers stroke" />
    <rect
       y="55.6875"
       x="148.125"
       height="0.625"
       width="2.25"
       id="rect971-507"
       style="opacity:0.999;fill:#171717;fill-opacity:1;stroke:#e10609;stroke-width:1.8;stroke-linecap:butt;stroke-linejoin:miter;stroke-miterlimit:4;stroke-dasharray:none;stroke-opacity:1;paint-order:fill markers stroke" />
    <rect
       y="74.9375"
       x="154"
       height="0.625"
       width="2.25"
       id="rect971-09"
       style="opacity:0.999;fill:#171717;fill-opacity:1;stroke:#e10609;stroke-width:1.8;stroke-linecap:butt;stroke-linejoin:miter;stroke-miterlimit:4;stroke-dasharray:none;stroke-opacity:1;paint-order:fill markers stroke" />
    <rect
       y="74.5625"
       x="146.875"
       height="0.625"
       width="2.25"
       id="rect971-50"
       style="opacity:0.999;fill:#171717;fill-opacity:1;stroke:#e10609;stroke-width:1.8;stroke-linecap:butt;stroke-linejoin:miter;stroke-miterlimit:4;stroke-dasharray:none;stroke-opacity:1;paint-order:fill markers stroke" />
    <rect
       y="55.8125"
       x="118.5"
       height="0.625"
       width="2.25"
       id="rect971-33"
       style="opacity:0.999;fill:#171717;fill-opacity:1;stroke:#e10609;stroke-width:1.8;stroke-linecap:butt;stroke-linejoin:miter;stroke-miterlimit:4;stroke-dasharray:none;stroke-opacity:1;paint-order:fill markers stroke" />
    <rect
       y="61.5625"
       x="138"
       height="0.625"
       width="2.25"
       id="rect971-8"
       style="opacity:0.999;fill:#171717;fill-opacity:1;stroke:#e10609;stroke-width:1.8;stroke-linecap:butt;stroke-linejoin:miter;stroke-miterlimit:4;stroke-dasharray:none;stroke-opacity:1;paint-order:fill markers stroke" />
    <rect
       y="61.8125"
       x="132.75"
       height="0.625"
       width="2.25"
       id="rect971-97"
       style="opacity:0.999;fill:#171717;fill-opacity:1;stroke:#e10609;stroke-width:1.8;stroke-linecap:butt;stroke-linejoin:miter;stroke-miterlimit:4;stroke-dasharray:none;stroke-opacity:1;paint-order:fill markers stroke" />
    <rect
       y="66.8125"
       x="126.625"
       height="0.625"
       width="2.25"
       id="rect971-26"
       style="opacity:0.999;fill:#171717;fill-opacity:1;stroke:#e10609;stroke-width:1.8;stroke-linecap:butt;stroke-linejoin:miter;stroke-miterlimit:4;stroke-dasharray:none;stroke-opacity:1;paint-order:fill markers stroke" />
    <rect
       y="73.1875"
       x="113.375"
       height="0.625"
       width="2.25"
       id="rect971-6"
       style="opacity:0.999;fill:#171717;fill-opacity:1;stroke:#e10609;stroke-width:1.8;stroke-linecap:butt;stroke-linejoin:miter;stroke-miterlimit:4;stroke-dasharray:none;stroke-opacity:1;paint-order:fill markers stroke" />
    <rect
       y="72.8125"
       x="104.25"
       height="0.625"
       width="2.25"
       id="rect971-99"
       style="opacity:0.999;fill:#171717;fill-opacity:1;stroke:#e10609;stroke-width:1.8;stroke-linecap:butt;stroke-linejoin:miter;stroke-miterlimit:4;stroke-dasharray:none;stroke-opacity:1;paint-order:fill markers stroke" />
    <rect
       y="101.6875"
       x="55.25"
       height="0.625"
       width="2.25"
       id="rect971-28"
       style="opacity:0.999;fill:#171717;fill-opacity:1;stroke:#e10609;stroke-width:1.8;stroke-linecap:butt;stroke-linejoin:miter;stroke-miterlimit:4;stroke-dasharray:none;stroke-opacity:1;paint-order:fill markers stroke" />
    <rect
       y="101.6875"
       x="45.5"
       height="0.625"
       width="2.25"
       id="rect971-956"
       style="opacity:0.999;fill:#171717;fill-opacity:1;stroke:#e10609;stroke-width:1.8;stroke-linecap:butt;stroke-linejoin:miter;stroke-miterlimit:4;stroke-dasharray:none;stroke-opacity:1;paint-order:fill markers stroke" />
    <rect
       y="177.4375"
       x="53.5"
       height="0.625"
       width="2.25"
       id="rect971-7"
       style="opacity:0.999;fill:#171717;fill-opacity:1;stroke:#e10609;stroke-width:1.8;stroke-linecap:butt;stroke-linejoin:miter;stroke-miterlimit:4;stroke-dasharray:none;stroke-opacity:1;paint-order:fill markers stroke" />
    <rect
       y="182.50714"
       x="54.819645"
       height="0.48570657"
       width="3.3607066"
       id="rect971-12"
       style="opacity:0.999;fill:#171717;fill-opacity:1;stroke:#e10609;stroke-width:1.93929;stroke-linecap:butt;stroke-linejoin:miter;stroke-miterlimit:4;stroke-dasharray:none;stroke-opacity:1;paint-order:fill markers stroke" />
    <rect
       y="191.4375"
       x="101.875"
       height="0.625"
       width="2.25"
       id="rect971-34"
       style="opacity:0.999;fill:#171717;fill-opacity:1;stroke:#e10609;stroke-width:1.8;stroke-linecap:butt;stroke-linejoin:miter;stroke-miterlimit:4;stroke-dasharray:none;stroke-opacity:1;paint-order:fill markers stroke" />
    <rect
       y="191.6875"
       x="95.5"
       height="0.625"
       width="2.25"
       id="rect971-95"
       style="opacity:0.999;fill:#171717;fill-opacity:1;stroke:#e10609;stroke-width:1.8;stroke-linecap:butt;stroke-linejoin:miter;stroke-miterlimit:4;stroke-dasharray:none;stroke-opacity:1;paint-order:fill markers stroke" />
    <rect
       y="195.6875"
       x="101.75"
       height="0.625"
       width="2.25"
       id="rect971-2"
       style="opacity:0.999;fill:#171717;fill-opacity:1;stroke:#e10609;stroke-width:1.8;stroke-linecap:butt;stroke-linejoin:miter;stroke-miterlimit:4;stroke-dasharray:none;stroke-opacity:1;paint-order:fill markers stroke" />
    <rect
       style="opacity:0.999;fill:#171717;fill-opacity:1;stroke:#e10609;stroke-width:1.8;stroke-linecap:butt;stroke-linejoin:miter;stroke-miterlimit:4;stroke-dasharray:none;stroke-opacity:1;paint-order:fill markers stroke"
       id="rect971"
       width="2.25"
       height="0.625"
       x="72.875"
       y="234.125" />
    <rect
       y="234.1875"
       x="79.375"
       height="0.625"
       width="2.25"
       id="rect971-9"
       style="opacity:0.999;fill:#171717;fill-opacity:1;stroke:#e10609;stroke-width:1.8;stroke-linecap:butt;stroke-linejoin:miter;stroke-miterlimit:4;stroke-dasharray:none;stroke-opacity:1;paint-order:fill markers stroke" />
    <rect
       y="229.4375"
       x="79"
       height="0.625"
       width="2.25"
       id="rect971-4"
       style="opacity:0.999;fill:#171717;fill-opacity:1;stroke:#e10609;stroke-width:1.8;stroke-linecap:butt;stroke-linejoin:miter;stroke-miterlimit:4;stroke-dasharray:none;stroke-opacity:1;paint-order:fill markers stroke" />
    <rect
       y="229.3125"
       x="73"
       height="0.625"
       width="2.25"
       id="rect971-3"
       style="opacity:0.999;fill:#171717;fill-opacity:1;stroke:#e10609;stroke-width:1.8;stroke-linecap:butt;stroke-linejoin:miter;stroke-miterlimit:4;stroke-dasharray:none;stroke-opacity:1;paint-order:fill markers stroke" />
    <rect
       y="224.1875"
       x="68.5"
       height="0.625"
       width="2.25"
       id="rect971-5"
       style="opacity:0.999;fill:#171717;fill-opacity:1;stroke:#e10609;stroke-width:1.8;stroke-linecap:butt;stroke-linejoin:miter;stroke-miterlimit:4;stroke-dasharray:none;stroke-opacity:1;paint-order:fill markers stroke" />
    <rect
       y="207.3125"
       x="70.25"
       height="0.625"
       width="2.25"
       id="rect971-1"
       style="opacity:0.999;fill:#171717;fill-opacity:1;stroke:#e10609;stroke-width:1.8;stroke-linecap:butt;stroke-linejoin:miter;stroke-miterlimit:4;stroke-dasharray:none;stroke-opacity:1;paint-order:fill markers stroke" />
    <rect
       y="202.1875"
       x="69.875"
       height="0.625"
       width="2.25"
       id="rect971-16"
       style="opacity:0.999;fill:#171717;fill-opacity:1;stroke:#e10609;stroke-width:1.8;stroke-linecap:butt;stroke-linejoin:miter;stroke-miterlimit:4;stroke-dasharray:none;stroke-opacity:1;paint-order:fill markers stroke" />
    <rect
       y="201.5625"
       x="78.5"
       height="0.625"
       width="2.25"
       id="rect971-49"
       style="opacity:0.999;fill:#171717;fill-opacity:1;stroke:#e10609;stroke-width:1.8;stroke-linecap:butt;stroke-linejoin:miter;stroke-miterlimit:4;stroke-dasharray:none;stroke-opacity:1;paint-order:fill markers stroke" />
    <rect
       y="207.0625"
       x="78.125"
       height="0.625"
       width="2.25"
       id="rect971-0"
       style="opacity:0.999;fill:#171717;fill-opacity:1;stroke:#e10609;stroke-width:1.8;stroke-linecap:butt;stroke-linejoin:miter;stroke-miterlimit:4;stroke-dasharray:none;stroke-opacity:1;paint-order:fill markers stroke" />
    <rect
       y="195.8125"
       x="95.5"
       height="0.625"
       width="2.25"
       id="rect971-93"
       style="opacity:0.999;fill:#171717;fill-opacity:1;stroke:#e10609;stroke-width:1.8;stroke-linecap:butt;stroke-linejoin:miter;stroke-miterlimit:4;stroke-dasharray:none;stroke-opacity:1;paint-order:fill markers stroke" />
  </g>
  <g
     inkscape:groupmode="layer"
     id="layer4"
     inkscape:label="Roof"
     style="display:inline">
    <path
       style="fill:#171717;fill-opacity:1;stroke:none;stroke-width:1px;stroke-linecap:butt;stroke-linejoin:miter;stroke-opacity:1"
       d="M 8.5609153,127.85536 12.096449,117.5013 55.280471,76.842661 55.027932,27.597725 H 72.200526 L 71.947988,62.447988 129.66061,8.747964 250.23991,120.042 l 0.45912,5.06477 -111.56058,-97.153217 z"
       id="path904"
       sodipodi:nodetypes="ccccccccccc" />
  </g>
  <g
     inkscape:groupmode="layer"
     id="layer5"
     inkscape:label="Roof Shadow"
     style="display:inline">
    <path
       style="fill:#000000;fill-opacity:1;stroke:none;stroke-width:1px;stroke-linecap:butt;stroke-linejoin:miter;stroke-opacity:1"
       d="M 8.5609153,127.85536 133.75,12.553571 250.23991,120.042 l 0.45912,5.06477 -111.56058,-97.153217 z"
       id="path907" />
    <path
       style="fill:#000000;fill-opacity:1;stroke:none;stroke-width:1px;stroke-linecap:butt;stroke-linejoin:miter;stroke-opacity:1"
       d="M 55.637614,77.199804 55.027932,27.597725 71.843383,28.579868 57.537065,31.547656 Z"
       id="path909"
       sodipodi:nodetypes="ccccc" />
  </g>
  <g
     inkscape:groupmode="layer"
     id="layer6"
     inkscape:label="Eyes"
     style="opacity:1">
    <path
       style="fill:#e8e6e7;fill-opacity:1;stroke:#000000;stroke-width:3.2;stroke-linecap:butt;stroke-linejoin:round;stroke-miterlimit:4;stroke-dasharray:none;stroke-opacity:1;paint-order:fill markers stroke"
       d="M 120.35714,168 C 117.07741,184.13119 92.240131,188.72273 77.232143,182.21428 62.259899,175.72133 47.764226,161.56981 58.571429,146.21429 69.432673,130.78198 120.35714,168 120.35714,168 Z"
       id="path912"
       sodipodi:nodetypes="cssc" />
    <path
       style="fill:#e8e6e7;fill-opacity:1;stroke:#000000;stroke-width:3.2;stroke-linecap:butt;stroke-linejoin:round;stroke-miterlimit:4;stroke-dasharray:none;stroke-opacity:1;paint-order:fill markers stroke"
       d="m 138.17857,164.26786 c 5.91072,22.94643 34,21.98214 47.21428,16.625 13.21429,-5.35715 25.375,-23.07143 14.21429,-37.07143 -10.99697,-13.7946 -60.8881,12.3394 -61.42857,20.44643 z"
       id="path914"
       sodipodi:nodetypes="cssc" />
    <path
       style="opacity:0.999;fill:#030303;fill-opacity:1;stroke:none;stroke-width:3.06515;stroke-linejoin:round;stroke-miterlimit:4;stroke-dasharray:none;stroke-opacity:1;paint-order:fill markers stroke"
       id="path916"
       sodipodi:type="arc"
       sodipodi:cx="89.107147"
       sodipodi:cy="159.37489"
       sodipodi:rx="9.4642849"
       sodipodi:ry="8.1362572"
       sodipodi:start="0"
       sodipodi:end="6.2800612"
       sodipodi:open="true"
       sodipodi:arc-type="arc"
       d="m 98.571432,159.37489 a 9.4642849,8.1362572 0 0 1 -9.456893,8.13626 9.4642849,8.1362572 0 0 1 -9.471665,-8.12355 9.4642849,8.1362572 0 0 1 9.442097,-8.14894 9.4642849,8.1362572 0 0 1 9.486415,8.11081" />
    <path
       d="m 180.17856,158.71428 a 9.4642849,8.1362572 0 0 1 -9.45689,8.13625 9.4642849,8.1362572 0 0 1 -9.47166,-8.12354 9.4642849,8.1362572 0 0 1 9.44209,-8.14895 9.4642849,8.1362572 0 0 1 9.48642,8.11082"
       sodipodi:arc-type="arc"
       sodipodi:open="true"
       sodipodi:end="6.2800612"
       sodipodi:start="0"
       sodipodi:ry="8.1362572"
       sodipodi:rx="9.4642849"
       sodipodi:cy="158.71428"
       sodipodi:cx="170.71428"
       sodipodi:type="arc"
       id="path916-2"
       style="opacity:0.999;fill:#030303;fill-opacity:1;stroke:none;stroke-width:3.06515;stroke-linejoin:round;stroke-miterlimit:4;stroke-dasharray:none;stroke-opacity:1;paint-order:fill markers stroke" />
    <path
       style="opacity:0.999;fill:#ffffff;fill-opacity:1;stroke:none;stroke-width:3.2;stroke-linejoin:round;stroke-miterlimit:4;stroke-dasharray:none;stroke-opacity:1;paint-order:fill markers stroke"
       id="path933"
       sodipodi:type="arc"
       sodipodi:cx="83.53318"
       sodipodi:cy="161.26932"
       sodipodi:rx="2.1781414"
       sodipodi:ry="2.1939251"
       sodipodi:start="0"
       sodipodi:end="6.2800612"
       sodipodi:open="true"
       sodipodi:arc-type="arc"
       d="m 85.711322,161.26932 a 2.1781414,2.1939251 0 0 1 -2.176441,2.19392 2.1781414,2.1939251 0 0 1 -2.179839,-2.1905 2.1781414,2.1939251 0 0 1 2.173035,-2.19734 2.1781414,2.1939251 0 0 1 2.183234,2.18706" />
    <path
       d="m 178.42437,160.46434 a 2.1781414,2.1939251 0 0 1 -2.17644,2.19392 2.1781414,2.1939251 0 0 1 -2.17984,-2.19049 2.1781414,2.1939251 0 0 1 2.17304,-2.19735 2.1781414,2.1939251 0 0 1 2.18323,2.18707"
       sodipodi:arc-type="arc"
       sodipodi:open="true"
       sodipodi:end="6.2800612"
       sodipodi:start="0"
       sodipodi:ry="2.1939251"
       sodipodi:rx="2.1781414"
       sodipodi:cy="160.46434"
       sodipodi:cx="176.24623"
       sodipodi:type="arc"
       id="path933-4"
       style="opacity:0.999;fill:#ffffff;fill-opacity:1;stroke:none;stroke-width:3.2;stroke-linejoin:round;stroke-miterlimit:4;stroke-dasharray:none;stroke-opacity:1;paint-order:fill markers stroke" />
    <path
       style="fill:#000000;fill-opacity:1;stroke:none;stroke-width:3.2;stroke-linecap:round;stroke-linejoin:round;stroke-miterlimit:4;stroke-dasharray:none;stroke-opacity:1"
       d="M 123.96323,158.74021 59.876664,125.50676 28.763966,146.03811 57.851103,145.12718 121.41964,169.8125 Z"
       id="path950"
       sodipodi:nodetypes="cccccc" />
    <path
       style="fill:#171717;fill-opacity:1;stroke:none;stroke-width:3.2;stroke-linecap:round;stroke-linejoin:round;stroke-miterlimit:4;stroke-dasharray:none;stroke-opacity:1"
       d="m 59.876664,125.50676 -1.768221,-0.53862 -29.745017,19.16942 0.40054,1.90055 z"
       id="path954"
       sodipodi:nodetypes="ccccc" />
    <path
       style="fill:#000000;fill-opacity:1;stroke:none;stroke-width:3.2;stroke-linecap:round;stroke-linejoin:round;stroke-miterlimit:4;stroke-dasharray:none;stroke-opacity:1"
       d="m 135.89286,159.78571 67.32143,-35 28.46632,19.44937 -0.23289,1.3123 -28.41201,-0.0474 -65.5258,22.28303 z"
       id="path952"
       sodipodi:nodetypes="ccccccc" />
    <path
       style="fill:#171717;fill-opacity:1;stroke:none;stroke-width:3.2;stroke-linecap:round;stroke-linejoin:round;stroke-miterlimit:4;stroke-dasharray:none;stroke-opacity:1"
       d="m 203.21429,124.78571 -1.94257,-0.87459 -65.02369,33.60449 -0.35517,2.2701 z"
       id="path956"
       sodipodi:nodetypes="ccccc" />
  </g>
  <g
     inkscape:groupmode="layer"
     id="layer7"
     inkscape:label="Mouth"
     style="opacity:1">
    <path
       style="fill:#000000;fill-opacity:1;stroke:none;stroke-width:2.5;stroke-linecap:butt;stroke-linejoin:bevel;stroke-miterlimit:4;stroke-dasharray:none;stroke-opacity:1"
       d="m 178.65798,209.9934 c -9.19239,-0.7955 -18.56155,0.26517 -24.57196,2.20971 -6.01041,1.94454 -16.08668,8.92721 -19.44544,11.22531 -3.35875,2.2981 -14.68197,9.51961 -29.87527,7.15946 -13.773039,-2.13952 -20.127178,-9.28496 -15.202787,-21.38998 5.108937,-12.55867 14.142137,-12.63953 20.859647,-12.63953 6.71752,0 18.73833,3.27036 26.69328,5.74524 7.95495,2.47487 13.7002,4.5962 13.7002,4.5962 0,0 22.80419,-3.97749 27.84233,3.09359 z"
       id="path961"
       sodipodi:nodetypes="csssssscc" />
    <path
       style="fill:#e8e6e7;fill-opacity:1;stroke:none;stroke-width:1px;stroke-linecap:butt;stroke-linejoin:miter;stroke-opacity:1"
       d="m 148.95949,209.46306 c -2.82842,0.53033 -5.83363,3.8007 -5.83363,3.8007 l -9.28078,-0.17677 c 0,0 -0.35355,-1.23744 -1.32582,-1.59099 -0.97227,-0.35356 -6.01041,6.54073 -8.83884,5.92202 -2.82842,-0.61872 -5.74524,-5.30331 -5.74524,-5.30331 l -0.35355,2.65165 c 0,0 3.07703,4.11058 5.39169,4.33103 3.71231,0.35356 8.22012,-4.06586 8.22012,-4.06586 h 7.60139 c 0,0 -6.54073,4.94974 -11.31371,7.33623 -2.05091,1.02545 -9.36622,4.86136 -10.69499,4.86136 -3.53553,1e-5 -4.41941,-3.09359 -4.41941,-3.09359 0,0 -2.20972,4.15425 -5.83363,3.97748 -2.74248,-0.13377 -7.057645,-3.626 -7.689791,-7.68979 -1.237436,-7.95495 1.325821,-8.57367 1.325821,-8.57367 0,0 8.92723,0.35355 10.69499,0.79549 1.76777,0.44195 5.56847,1.14905 5.56847,1.14905 l 0.0884,-1.5026 c 0,0 -3.53554,-0.97227 -6.62913,-1.32582 -3.09359,-0.35356 -4.77297,0.26516 -4.86136,-3.00521 -0.0884,-3.27037 1.67938,-7.24784 1.67938,-7.24784 l 8.83884,0.17677 c 0,0 0.53033,2.91682 1.67938,2.91682 1.14904,0 2.65165,-2.2981 2.65165,-2.2981 0,0 3.80069,0.88389 5.92202,1.23744 2.12132,0.35355 7.68978,2.20971 7.68978,2.20971 0,0 0.17678,2.82843 1.14905,3.0052 0.97227,0.17678 2.12132,-2.38648 2.12132,-2.38648 0,0 4.86136,1.5026 6.27557,1.85615 1.41422,0.35356 5.92202,2.03293 5.92202,2.03293 z"
       id="path963"
       sodipodi:nodetypes="sccssccsccsscsscsccssccscscscscs" />
  </g>
  <g
     inkscape:groupmode="layer"
     id="layer8"
     inkscape:label="Outline"
     sodipodi:insensitive="true">
    <path
       id="path1238"
       style="display:inline;fill:none;stroke:#e10609;stroke-width:3.6;stroke-linecap:round;stroke-linejoin:round;stroke-miterlimit:4;stroke-dasharray:none;stroke-opacity:1"
       d="M 128.93359,6.8691406 C 110.42578,24.212891 91.917969,41.556641 73.410156,58.900391 73.337591,48.119794 73.26745,37.33918 73.193359,26.558594 c -6.315083,0.239487 -12.630264,0.476387 -18.945312,0.716797 0.0097,16.379557 0.02235,32.759114 0.0332,49.138671 -14.170583,13.560537 -28.341088,27.121158 -42.511719,40.681638 -1.704912,3.64661 -3.4075149,7.29429 -5.1113279,10.94141 0.7324829,0.42521 1.4634098,0.85309 2.1953125,1.2793 6.6556734,-4.87768 13.3083664,-9.75943 19.9628904,-14.63868 1.79362,7.82813 3.58724,15.65625 5.38086,23.48438 -2.475489,1.68521 -4.949089,3.3732 -7.425782,5.05664 0.08164,1.4908 0.162088,2.98167 0.240235,4.47266 3.259138,-0.0791 6.518226,-0.16029 9.777343,-0.24024 8.009033,34.26549 16.013513,68.53205 24.025391,102.79688 45.28776,0.0627 90.57553,0.11897 135.86328,0.18164 8.38395,-34.33727 16.7739,-68.67307 25.16016,-103.00977 3.5,-0.0305 7,-0.0616 10.5,-0.0918 0.47898,-1.30883 0.95751,-2.61784 1.43359,-3.92773 -3.28849,-2.21699 -6.57821,-4.43216 -9.86718,-6.64844 2.26302,-8.88606 4.52604,-17.77213 6.78906,-26.6582 7.07239,5.76287 14.14367,11.52709 21.2168,17.28906 -0.23712,-2.60344 -0.47149,-5.20714 -0.70899,-7.81054 -38.9734,-36.354358 -77.92872,-72.729116 -116.91161,-109.072678 -1.56083,-1.4203078 -3.12031,-2.8420964 -4.68214,-4.2613108 -0.22461,0.2102865 -0.44922,0.420573 -0.67383,0.6308594 z" />
    <path
       style="display:inline;fill:none;stroke:#e10609;stroke-width:1.8;stroke-linecap:butt;stroke-linejoin:miter;stroke-miterlimit:4;stroke-dasharray:none;stroke-opacity:1"
       d="m 195.89286,249.42857 25.15957,-103.00363 10.58399,-0.0906 0.92808,-2.54117 -9.80248,-6.60315 7.34959,-28.85963 20.58742,16.77641 -0.45912,-5.0648 L 134.28033,11.846464 129.61642,7.598915 72.425891,61.192896 72.200526,27.597725 l -16.951623,0.640816 0.03157,48.60412 -42.684022,40.846139 -4.6462,9.94388 0.841664,0.49128 20.658626,-15.15378 5.874199,25.63364 -7.524002,5.12527 0.157472,2.93911 9.620147,-0.23607 24.028788,102.8179 z"
       id="path966"
       sodipodi:nodetypes="cccccccccccccccccccccccc" />
  </g>
</svg>
