<svg xmlns="http://www.w3.org/2000/svg" viewBox="0 0 200 200" y="0px" x="0px"><g><path d="m 153.90039,1 c -12,0 -23.5,4.7992188 -32,13.199219 L 91.300781,44.900391 C 90.400781,20.000391 69.5,0.50039062 44.5,1.4003906 20.4,2.2003906 1.2,21.999219 1,46.199219 V 153.90039 C 1,178.80039 21.199609,199 46.099609,199 c 12,0 23.5,-4.79922 32,-13.19922 l 30.701171,-30.70117 c 1.3,24.9 22.49844,44.10078 47.39844,42.80078 23.6,-1.2 42.30039,-20.39961 42.90039,-44.09961 V 46.199219 C 198.99961,21.199219 178.80039,1 153.90039,1 Z M 99.667969,54.800781 a 45.200001,45.200001 0 0 1 0.332031,0 A 45.200001,45.200001 0 0 1 145.19922,100 45.200001,45.200001 0 0 1 100,145.19922 45.200001,45.200001 0 0 1 54.800781,100 45.200001,45.200001 0 0 1 99.667969,54.800781 Z"/><circle r="42.035999" cx="100" cy="100" /></g></svg>
